<svg xmlns="http://www.w3.org/2000/svg" viewBox="0 0 147.01 43.77"><defs><style>.cls-1{fill:#097def;}</style></defs><title>Asset 1</title><g id="Layer_2" data-name="Layer 2"><g id="Layer_1-2" data-name="Layer 1"><polygon points="32.54 2.92 32.54 34.03 27.12 34.03 5.47 10.55 5.47 34.03 0 34.03 0 2.92 5.47 2.92 27.12 26.58 27.12 2.92 32.54 2.92"/><path d="M39.6,10.12V34H45V10.12Z"/><rect class="cls-1" x="39.12" width="6.38" height="5.13" rx="2.56"/><polygon class="cls-1" points="62.7 25.49 55.96 34.03 49.44 34.03 59.7 21.93 61 23.42 62.7 25.49"/><polygon points="76.27 34.03 69.74 34.03 62.7 25.49 61 23.42 59.7 21.93 49.44 10.12 56.01 10.12 62.8 18.14 69.16 10.12 75.64 10.12 65.8 21.69 76.27 34.03"/><path class="cls-1" d="M105.16,14.64V10.17L94,10.12a16.86,16.86,0,0,0-1.8-.38,12.26,12.26,0,0,0-2-.14,14.14,14.14,0,0,0-6.16,1.29,10.08,10.08,0,0,0-4.23,3.65,10.05,10.05,0,0,0-1.51,5.57,9.63,9.63,0,0,0,1.56,5.52,9.85,9.85,0,0,0,4.27,3.5,11.83,11.83,0,0,0,1.67.6,17.63,17.63,0,0,0-2.44.17,6.32,6.32,0,0,0-3.12,1.25A3.51,3.51,0,0,0,79.1,34a4,4,0,0,0,.38,1.75,3.84,3.84,0,0,0,1.2,1.39,5.83,5.83,0,0,0,2.19.91,14.73,14.73,0,0,0,3.28.32h6.49a6.77,6.77,0,0,1,3.88,1,3.72,3.72,0,0,1,1.39,3.31v1.1h5.38V41.61a7.5,7.5,0,0,0-1.22-4.53,6.61,6.61,0,0,0-3.43-2.36A17.33,17.33,0,0,0,93.5,34H86.68a2.73,2.73,0,0,1-1.63-.43,1.39,1.39,0,0,1-.57-1.16c0-.8.48-1.33,1.46-1.6a19.29,19.29,0,0,1,4.29-.51,14.86,14.86,0,0,0,6.17-1.2,9.7,9.7,0,0,0,4.18-3.45,9.54,9.54,0,0,0,1.51-5.43,7.23,7.23,0,0,0-.77-3.36,9.14,9.14,0,0,0-2.09-2.66A11.57,11.57,0,0,0,97.59,13c.89.35,1.87.68,2.94,1A15.19,15.19,0,0,0,105.16,14.64ZM96,23.37a5.71,5.71,0,0,1-2.36,2.07,8.41,8.41,0,0,1-6.81,0,5.57,5.57,0,0,1-2.35-2.07,5.85,5.85,0,0,1-.87-3.26,6.11,6.11,0,0,1,.87-3.34,5.54,5.54,0,0,1,2.37-2.09,8.36,8.36,0,0,1,6.79,0A5.62,5.62,0,0,1,96,16.8a6.18,6.18,0,0,1,.86,3.31A5.93,5.93,0,0,1,96,23.37Z"/><path d="M109.91.52h5.33V34h-5.33Z"/><path d="M141.69,26.16h5.14a9.11,9.11,0,0,1-1.9,4.34,10.17,10.17,0,0,1-4.1,3,16.11,16.11,0,0,1-6.2,1.08A16.88,16.88,0,0,1,127.34,33a11.49,11.49,0,0,1-6.87-10.92,12.25,12.25,0,0,1,1.78-6.62,11.74,11.74,0,0,1,4.92-4.37,16.44,16.44,0,0,1,7.27-1.53,15.09,15.09,0,0,1,7.13,1.51,9.5,9.5,0,0,1,4.25,4.51A15.92,15.92,0,0,1,147,23.18H125.9a8.11,8.11,0,0,0,1.32,3.62,7.09,7.09,0,0,0,2.95,2.5,10.12,10.12,0,0,0,4.37.89,9.16,9.16,0,0,0,4.68-1.11A5.14,5.14,0,0,0,141.69,26.16ZM134.3,13.92a8.64,8.64,0,0,0-5.38,1.6,7.22,7.22,0,0,0-2.73,4.11H141.6a5.53,5.53,0,0,0-2.17-4.2A8.17,8.17,0,0,0,134.3,13.92Z"/></g></g></svg>